<?xml version="1.0" encoding="iso-8859-1"?>
<!-- Generator: Adobe Illustrator 19.0.0, SVG Export Plug-In . SVG Version: 6.00 Build 0)  -->
<svg version="1.1" id="Layer_1" xmlns="http://www.w3.org/2000/svg" xmlns:xlink="http://www.w3.org/1999/xlink" x="0px" y="0px"
	 viewBox="0 0 512 512" style="enable-background:new 0 0 512 512;" xml:space="preserve">
<path style="fill:#802812;" d="M387.2,230.4v-76.8H41.6v275.2c0,45.876,37.324,83.2,83.2,83.2H304c39.268,0,72.244-27.352,80.938-64
	h2.262c45.876,0,83.2-37.324,83.2-83.2v-51.2C470.4,267.724,433.076,230.4,387.2,230.4z M432,364.8c0,24.703-20.097,44.8-44.8,44.8
	V268.8c24.703,0,44.8,20.097,44.8,44.8V364.8z"/>
<path style="fill:#401409;" d="M387.2,230.4v-76.8H214.4V512H304c39.268,0,72.244-27.352,80.938-64h2.262
	c45.876,0,83.2-37.324,83.2-83.2v-51.2C470.4,267.724,433.076,230.4,387.2,230.4z M432,364.8c0,24.703-20.097,44.8-44.8,44.8V268.8
	c24.703,0,44.8,20.097,44.8,44.8V364.8z"/>
<g>
	<path style="fill:#FFC170;" d="M191.36,115.2h-38.4c0-13.298,3.013-20.831,5.213-26.332c1.59-3.977,2.467-6.167,2.467-12.07
		s-0.877-8.093-2.467-12.07c-2.202-5.5-5.213-13.034-5.213-26.332c0-13.297,3.013-20.829,5.213-26.33
		c1.59-3.974,2.467-6.164,2.467-12.065h38.4c0,13.297-3.014,20.829-5.213,26.33c-1.59,3.976-2.467,6.166-2.467,12.067
		c0,5.903,0.877,8.093,2.468,12.07c2.2,5.5,5.212,13.034,5.212,26.331c0,13.298-3.013,20.831-5.212,26.331
		C192.237,107.107,191.36,109.297,191.36,115.2z"/>
	<path style="fill:#FFC170;" d="M268.16,115.2h-38.4c0-13.298,3.013-20.831,5.213-26.332c1.59-3.977,2.467-6.167,2.467-12.07
		s-0.877-8.093-2.467-12.07c-2.202-5.5-5.213-13.034-5.213-26.332c0-13.297,3.014-20.829,5.213-26.33
		c1.59-3.974,2.467-6.164,2.467-12.065h38.4c0,13.297-3.014,20.829-5.213,26.33c-1.59,3.976-2.467,6.166-2.467,12.067
		c0,5.903,0.877,8.093,2.468,12.07c2.2,5.5,5.212,13.034,5.212,26.331c0,13.298-3.013,20.831-5.212,26.331
		C269.037,107.107,268.16,109.297,268.16,115.2z"/>
	<path style="fill:#FFC170;" d="M278.4,327.679c0-15.018-8.39-32.881-26.403-56.211c-11.761-15.233-23.404-27.136-23.892-27.635
		L214.4,229.866l-13.705,13.966c-0.489,0.499-12.133,12.402-23.892,27.635C158.79,294.798,150.4,312.66,150.4,327.679
		c0,28.603,18.862,52.879,44.8,61.053V435.2h38.4v-46.467C259.538,380.558,278.4,356.283,278.4,327.679z"/>
</g>
<path style="fill:#FF9811;" d="M251.997,271.469c-11.761-15.233-23.404-27.136-23.892-27.635L214.4,229.866V435.2h19.2v-46.467
	c25.938-8.174,44.8-32.451,44.8-61.053C278.4,312.662,270.01,294.799,251.997,271.469z"/>
<g>
</g>
<g>
</g>
<g>
</g>
<g>
</g>
<g>
</g>
<g>
</g>
<g>
</g>
<g>
</g>
<g>
</g>
<g>
</g>
<g>
</g>
<g>
</g>
<g>
</g>
<g>
</g>
<g>
</g>
</svg>
